<?xml version="1.0" encoding="UTF-8" standalone="no"?>
<!-- Created with Inkscape (http://www.inkscape.org/) -->

<svg
   xmlns:dc="http://purl.org/dc/elements/1.1/"
   xmlns:cc="http://creativecommons.org/ns#"
   xmlns:rdf="http://www.w3.org/1999/02/22-rdf-syntax-ns#"
   xmlns:svg="http://www.w3.org/2000/svg"
   xmlns="http://www.w3.org/2000/svg"
   xmlns:sodipodi="http://sodipodi.sourceforge.net/DTD/sodipodi-0.dtd"
   xmlns:inkscape="http://www.inkscape.org/namespaces/inkscape"
   width="11in"
   height="8.5in"
   viewBox="0 0 279.4 215.9"
   version="1.1"
   id="svg8"
   inkscape:version="0.92.3 (2405546, 2018-03-11)"
   sodipodi:docname="logo.svg">
  <defs
     id="defs2" />
  <sodipodi:namedview
     id="base"
     pagecolor="#ffffff"
     bordercolor="#666666"
     borderopacity="1.0"
     inkscape:pageopacity="0.0"
     inkscape:pageshadow="2"
     inkscape:zoom="0.1767767"
     inkscape:cx="1658.6696"
     inkscape:cy="853.10039"
     inkscape:document-units="mm"
     inkscape:current-layer="layer1"
     showgrid="false"
     units="in"
     inkscape:window-width="1280"
     inkscape:window-height="975"
     inkscape:window-x="0"
     inkscape:window-y="0"
     inkscape:window-maximized="1"
     showguides="true"
     inkscape:guide-bbox="true"
     inkscape:snap-global="true"
     inkscape:snap-bbox="false"
     inkscape:snap-bbox-midpoints="false">
    <inkscape:grid
       type="xygrid"
       id="grid831" />
  </sodipodi:namedview>
  <metadata
     id="metadata5">
    <rdf:RDF>
      <cc:Work
         rdf:about="">
        <dc:format>image/svg+xml</dc:format>
        <dc:type
           rdf:resource="http://purl.org/dc/dcmitype/StillImage" />
        <dc:title></dc:title>
      </cc:Work>
    </rdf:RDF>
  </metadata>
  <g
     inkscape:label="Logo"
     inkscape:groupmode="layer"
     id="layer1"
     transform="translate(0,-81.1)"
     style="display:inline">
    <text
       xml:space="preserve"
       style="font-style:normal;font-weight:normal;font-size:23.98835182px;line-height:1.25;font-family:sans-serif;text-align:start;letter-spacing:0px;word-spacing:0px;text-anchor:start;fill:#000000;fill-opacity:1;stroke:none;stroke-width:0.26458332"
       x="34.710182"
       y="214.45752"
       id="text1007"
       inkscape:export-xdpi="32.048016"
       inkscape:export-ydpi="32.048016"
       inkscape:export-filename="/home/mgouin/Documents/Mélodie/OrphophonieChezSoi/git/logo_email.png"><tspan
         sodipodi:role="line"
         x="34.710182"
         y="214.45752"
         style="font-style:normal;font-variant:normal;font-weight:normal;font-stretch:normal;font-size:21.16666603px;line-height:1;font-family:'Trebuchet MS';-inkscape-font-specification:'Trebuchet MS';stroke-width:0.26458332"
         id="tspan1005">Orthophonie chez soi</tspan></text>
    <text
       xml:space="preserve"
       style="font-style:normal;font-weight:normal;font-size:7.05555534px;line-height:1.25;font-family:sans-serif;text-align:start;letter-spacing:0px;word-spacing:0px;text-anchor:start;fill:#000000;fill-opacity:1;stroke:none;stroke-width:0.26458332"
       x="87.031181"
       y="227.88394"
       id="text1011"
       inkscape:export-xdpi="32.048016"
       inkscape:export-ydpi="32.048016"
       inkscape:export-filename="/home/mgouin/Documents/Mélodie/OrphophonieChezSoi/git/logo_email.png"><tspan
         sodipodi:role="line"
         id="tspan1009"
         x="87.031181"
         y="227.88394"
         style="font-style:normal;font-variant:normal;font-weight:normal;font-stretch:normal;font-size:9.17222214px;font-family:'Trebuchet MS';-inkscape-font-specification:'Trebuchet MS';stroke-width:0.26458332">Mélodie Gagnon M.P.O.</tspan></text>
    <path
       inkscape:export-ydpi="32.048016"
       inkscape:export-xdpi="32.048016"
       style="fill:#010201;fill-opacity:1;stroke:none;stroke-width:0.26458332px;stroke-linecap:butt;stroke-linejoin:miter;stroke-opacity:1"
       d="m 144.78659,170.995 h 4.46581 v 6.56312 l -4.46581,-1.47211 z"
       id="path1003"
       inkscape:connector-curvature="0"
       sodipodi:nodetypes="ccccc"
       inkscape:export-filename="/home/mgouin/Documents/Mélodie/OrphophonieChezSoi/git/logo_email.png" />
    <path
       style="fill:#000000;fill-opacity:1;stroke:none;stroke-width:0.26458332px;stroke-linecap:butt;stroke-linejoin:miter;stroke-opacity:1"
       d="m 133.76496,167.15266 c -18.11409,11.55518 -36.320843,22.32898 -55.052454,28.65458 18.350704,-4.53375 36.701754,-11.85149 55.052454,-22.02966 18.3507,10.17817 36.70124,17.49591 55.05194,22.02966 -18.73161,-6.3256 -36.93785,-17.0994 -55.05194,-28.65458 z"
       id="path1027"
       inkscape:connector-curvature="0"
       inkscape:export-filename="/home/mgouin/Documents/Mélodie/OrphophonieChezSoi/git/logo_email.png"
       inkscape:export-xdpi="32.048016"
       inkscape:export-ydpi="32.048016" />
    <g
       id="g1094"
       transform="matrix(0.37849574,-0.09189656,0.09189678,0.3784966,26.239681,123.01352)"
       style="stroke-width:2.56744385"
       inkscape:export-xdpi="32.048016"
       inkscape:export-ydpi="32.048016"
       inkscape:export-filename="/home/mgouin/Documents/Mélodie/OrphophonieChezSoi/git/logo_email.png">
      <circle
         style="opacity:1;fill:#006e24;fill-opacity:1;stroke:#000000;stroke-width:0.25674441;stroke-linecap:round;stroke-linejoin:round;stroke-miterlimit:4;stroke-dasharray:none;stroke-dashoffset:0;stroke-opacity:1"
         id="circle1090"
         cx="235.6291"
         cy="239.17358"
         r="25.586754" />
      <path
         style="fill:#ffffff;fill-opacity:1;stroke:#000000;stroke-width:0.25674441;stroke-linecap:butt;stroke-linejoin:miter;stroke-miterlimit:4;stroke-dasharray:none;stroke-opacity:1"
         d="m 240.64686,264.25828 c -2.48469,-1.78336 -3.73663,-4.60811 -4.45083,-6.55276 -2.21292,-6.02541 -7.65671,-9.69385 -13.72822,-9.85188 6.90854,2.13365 12.20472,7.46055 11.72788,9.35494 -0.47684,1.89438 -3.83546,4.58752 -10.02747,0.9969 -6.19201,-3.59062 -4.75112,-12.32469 -12.98111,-13.03075 10.33711,-3.2032 24.52777,-1.25983 25.35039,9.32658 2.8799,-8.82508 0.92833,-18.03949 -6.55876,-24.05811 5.04092,5.71311 7.06803,14.16119 5.7523,14.34536 -2.65016,0.37096 -7.41559,-3.92209 -8.88775,-7.1671 -1.47216,-3.24502 -2.53923,-11.91716 -5.66523,-13.02378 15.9359,1.59229 20.44892,9.82884 18.4957,13.9294 -1.27747,2.68189 -1.30207,10.22465 -0.42638,10.50512 1.09481,0.35065 1.40788,-6.73457 6.57624,-9.4358 5.16837,-2.70123 10.71858,-3.10545 15.07931,0.95703 -4.78396,-0.55406 -6.48402,7.47804 -10.23883,12.0332 -2.99316,3.63116 -7.76491,2.99761 -9.58705,2.06186 -3.38081,-1.73619 5.37458,-9.91778 11.1449,-13.20815 -7.81696,2.40068 -13.29036,8.77241 -14.21953,15.59612 -0.32406,2.37985 2.3079,6.62033 6.21273,6.23376 -1.135,0.39785 -2.29285,0.76692 -3.56829,0.98806 z"
         id="path1092"
         inkscape:connector-curvature="0"
         sodipodi:nodetypes="csczzcccszcsszcsscscc" />
    </g>
  </g>
</svg>
